<svg xmlns="http://www.w3.org/2000/svg" width="271.45306mm" height="138.17635mm" viewBox="0 0 271.45306 138.17635"><path d="M0 0v.004Z" style="fill:#231f20;fill-opacity:1;fill-rule:nonzero;stroke:none" transform="matrix(1.35454 0 0 -1.35454 215.916 41.155)"/><path d="M0 0c-1.017-3.471-3.871-4.464-7.498-4.464h-5.895l2.629 8.962h5.879C-1.32 4.498 1.053 3.592 0 0m12.177 5.975c-.703 4.886-5.008 7.898-13.82 7.898h-19.975L-33.48-26.474h13.63l3.688 12.557h6.398c8.754 0 14.736 2.781 18.317 7.664L2.604-26.476h13.613l6.202 21.191 10.619-21.172-.002-.019h7.208c-5.22 3.153-6.383 9.035-3.718 17.865l.644 2.084-10.358 20.376H14.463Z" style="fill:#1673c3;fill-opacity:1;fill-rule:nonzero;stroke:none" transform="matrix(1.35454 0 0 -1.35454 45.35 59.901)"/><path d="M0 0h13.632L6.533-24.134c-1.132-3.974-1.324-7.391 4.291-7.391 4.923 0 7.259 3.026 8.572 7.391L26.488 0h13.653l-6.702-22.787C28.521-38.998 23.073-41.378 7.926-41.378c-12.913 0-18.696 4.757-14.61 18.644z" style="fill:#1673c3;fill-opacity:1;fill-rule:nonzero;stroke:none" transform="matrix(1.35454 0 0 -1.35454 107.082 41.143)"/><path d="M0 0c-2.771-.297-3.972-2.307-4.423-3.405l-7.835-26.974H1.361l-3.983-13.605H10.31l4.002 13.605h13.64L36.78 0Z" style="fill:#59c134;fill-opacity:1;fill-rule:nonzero;stroke:none" transform="matrix(1.35454 0 0 -1.35454 178.054 0)"/><path d="m0 0 .051.177c.01.031.013.049.013.049h.002l10.632 36.157h-41.001L-42.152-3.925h36.993C-1.461-3.834-.265-.847 0 0" style="fill:#59c134;fill-opacity:1;fill-rule:nonzero;stroke:none" transform="matrix(1.35454 0 0 -1.35454 256.962 90.437)"/><path d="m0 0 8.058 27.523H-5.589l4.595 15.623h-12.923l-4.584-15.623h-13.656l-9.167-31.319H-5.18C-1.608-3.745-.339-.996 0 0" style="fill:#59c134;fill-opacity:1;fill-rule:nonzero;stroke:none" transform="matrix(1.35454 0 0 -1.35454 188.951 133.035)"/></svg>